<svg width="18" height="14" viewBox="0 0 18 14" fill="none" xmlns="http://www.w3.org/2000/svg">
<path d="M15.6667 0.333252H2.33341C1.41675 0.333252 0.675081 1.08325 0.675081 1.99992L0.666748 11.9999C0.666748 12.9166 1.41675 13.6666 2.33341 13.6666H15.6667C16.5834 13.6666 17.3334 12.9166 17.3334 11.9999V1.99992C17.3334 1.08325 16.5834 0.333252 15.6667 0.333252ZM14.8334 11.9999H3.16675C2.70841 11.9999 2.33341 11.6249 2.33341 11.1666V3.66659L8.11675 7.28325C8.65841 7.62492 9.34175 7.62492 9.88342 7.28325L15.6667 3.66659V11.1666C15.6667 11.6249 15.2917 11.9999 14.8334 11.9999ZM9.00008 6.16658L2.33341 1.99992H15.6667L9.00008 6.16658Z" fill="black"/>
</svg>
