<svg width="24" height="24" viewBox="0 0 24 24" fill="none" xmlns="http://www.w3.org/2000/svg">
<path fill-rule="evenodd" clip-rule="evenodd" d="M18 11C20.7614 11 23 8.76142 23 6C23 3.23858 20.7614 1 18 1C15.2386 1 13 3.23858 13 6C13 8.76142 15.2386 11 18 11ZM12.56 14.33C12.22 14.6 12 15.03 12 15.5V21H19C20.1 21 21 20.1 21 19V13.02C20.06 12.69 19.05 12.5 18 12.5C15.97 12.5 14.07 13.2 12.56 14.33ZM12.24 3C11.77 3.9 11.5 4.92 11.5 6C11.5 7.8 12.23 9.42 13.41 10.59L3.59 20.41C3.23 20.05 3 19.55 3 19V5C3 3.9 3.9 3 5 3H12.24Z" fill="#1A1E25"/>
</svg>
