<svg width="10" height="14" viewBox="0 0 10 14" fill="none" xmlns="http://www.w3.org/2000/svg">
<path d="M4.99998 0.333344C2.41998 0.333344 0.333313 2.42001 0.333313 5.00001C0.333313 7.78001 3.27998 11.6133 4.49331 13.0733C4.75998 13.3933 5.24665 13.3933 5.51331 13.0733C6.71998 11.6133 9.66665 7.78001 9.66665 5.00001C9.66665 2.42001 7.57998 0.333344 4.99998 0.333344ZM4.99998 6.66668C4.07998 6.66668 3.33331 5.92001 3.33331 5.00001C3.33331 4.08001 4.07998 3.33334 4.99998 3.33334C5.91998 3.33334 6.66665 4.08001 6.66665 5.00001C6.66665 5.92001 5.91998 6.66668 4.99998 6.66668Z" fill="currentColor"/>
</svg>
