<svg width="22" height="22" viewBox="0 0 22 22" fill="none" xmlns="http://www.w3.org/2000/svg">
<path d="M15.5834 2.22754H6.41671C3.66671 2.22754 1.83337 4.06087 1.83337 6.81087V12.3109C1.83337 15.0609 3.66671 16.8942 6.41671 16.8942V18.8467C6.41671 19.58 7.23254 20.02 7.83754 19.6075L11.9167 16.8942H15.5834C18.3334 16.8942 20.1667 15.0609 20.1667 12.3109V6.81087C20.1667 4.06087 18.3334 2.22754 15.5834 2.22754ZM11 13.3834C10.615 13.3834 10.3125 13.0717 10.3125 12.6959C10.3125 12.32 10.615 12.0084 11 12.0084C11.385 12.0084 11.6875 12.32 11.6875 12.6959C11.6875 13.0717 11.385 13.3834 11 13.3834ZM12.155 9.57921C11.7975 9.81754 11.6875 9.97337 11.6875 10.23V10.4225C11.6875 10.7984 11.3759 11.11 11 11.11C10.6242 11.11 10.3125 10.7984 10.3125 10.4225V10.23C10.3125 9.16671 11.0917 8.64421 11.385 8.44254C11.7242 8.21337 11.8342 8.05754 11.8342 7.81921C11.8342 7.36087 11.4584 6.98504 11 6.98504C10.5417 6.98504 10.1659 7.36087 10.1659 7.81921C10.1659 8.19504 9.85421 8.50671 9.47837 8.50671C9.10254 8.50671 8.79087 8.19504 8.79087 7.81921C8.79087 6.60004 9.78087 5.61004 11 5.61004C12.2192 5.61004 13.2092 6.60004 13.2092 7.81921C13.2092 8.86421 12.4392 9.38671 12.155 9.57921Z" fill="currentColor"/>
</svg>
