<svg width="22" height="22" viewBox="0 0 22 22" fill="none" xmlns="http://www.w3.org/2000/svg">
<path d="M11 11.9167C11.5063 11.9167 11.9167 11.5063 11.9167 11C11.9167 10.4938 11.5063 10.0834 11 10.0834C10.4938 10.0834 10.0834 10.4938 10.0834 11C10.0834 11.5063 10.4938 11.9167 11 11.9167Z" fill="currentColor" stroke="#060518" stroke-width="2" stroke-linecap="round" stroke-linejoin="round"/>
<path d="M11 5.49996C11.5063 5.49996 11.9167 5.08955 11.9167 4.58329C11.9167 4.07703 11.5063 3.66663 11 3.66663C10.4938 3.66663 10.0834 4.07703 10.0834 4.58329C10.0834 5.08955 10.4938 5.49996 11 5.49996Z" fill="currentColor" stroke="#060518" stroke-width="2" stroke-linecap="round" stroke-linejoin="round"/>
<path d="M11 18.3333C11.5063 18.3333 11.9167 17.9229 11.9167 17.4167C11.9167 16.9104 11.5063 16.5 11 16.5C10.4938 16.5 10.0834 16.9104 10.0834 17.4167C10.0834 17.9229 10.4938 18.3333 11 18.3333Z" fill="currentColor" stroke="#060518" stroke-width="2" stroke-linecap="round" stroke-linejoin="round"/>
</svg>
