<svg width="16" height="17" viewBox="0 0 16 17" fill="currentColor" xmlns="http://www.w3.org/2000/svg">
<path d="M15.2901 12.4083L14.0001 11.3333V7.16668C14.0001 4.60834 12.3601 2.46668 9.50005 1.90001V1.33334C9.50005 0.641677 8.83005 0.0833435 8.00005 0.0833435C7.17005 0.0833435 6.50005 0.641677 6.50005 1.33334V1.90001C3.63005 2.46668 2.00005 4.60001 2.00005 7.16668V11.3333L0.710051 12.4083C0.0800515 12.9333 0.520051 13.8333 1.41005 13.8333H14.5801C15.4801 13.8333 15.9201 12.9333 15.2901 12.4083ZM12.0001 12.1667H4.00005V7.16668C4.00005 5.10001 5.51005 3.41668 8.00005 3.41668C10.4901 3.41668 12.0001 5.10001 12.0001 7.16668V12.1667ZM8.00005 16.3333C9.10005 16.3333 10.0001 15.5833 10.0001 14.6667H6.00005C6.00005 15.5833 6.89005 16.3333 8.00005 16.3333Z" fill="currentColor"/>
</svg>
