<svg width="21" height="21" viewBox="0 0 21 21" fill="none" xmlns="http://www.w3.org/2000/svg">
<path d="M20 15.3242V17.5327C20 18.1871 19.7402 18.8147 19.2777 19.2775C18.8153 19.7402 18.1881 20.0002 17.5341 20.0002H3.46593C2.81193 20.0002 2.1847 19.7402 1.72225 19.2775C1.2598 18.8147 1 18.1871 1 17.5327V15.3242" stroke="currentColor" stroke-width="2" stroke-linecap="round" stroke-linejoin="round"/>
<path d="M1 5.41687V3.36881C1.00326 2.73943 1.25538 2.13694 1.70129 1.69305C2.14721 1.24916 2.75063 0.999992 3.37961 1H17.6327C18.2605 1 18.8627 1.24956 19.3066 1.69381C19.7506 2.13805 20 2.74056 20 3.36881V5.58961" stroke="currentColor" stroke-width="2" stroke-linecap="round" stroke-linejoin="round"/>
<path d="M1.08594 10.5H19.9133" stroke="currentColor" stroke-width="2" stroke-linecap="round" stroke-linejoin="round"/>
</svg>
