<svg width="22" height="22" viewBox="0 0 22 22" fill="none" xmlns="http://www.w3.org/2000/svg">
<path d="M20.1667 6.92087C20.1667 7.52587 19.6717 8.02087 19.0667 8.02087H2.93337C2.32837 8.02087 1.83337 7.52587 1.83337 6.92087V6.9117C1.83337 4.81253 3.52921 3.1167 5.62837 3.1167H16.3625C18.4617 3.1167 20.1667 4.8217 20.1667 6.92087Z" fill="currentColor"/>
<path d="M1.83337 10.4958V15.0883C1.83337 17.1874 3.52921 18.8833 5.62837 18.8833H16.3625C18.4617 18.8833 20.1667 17.1783 20.1667 15.0791V10.4958C20.1667 9.89075 19.6717 9.39575 19.0667 9.39575H2.93337C2.32837 9.39575 1.83337 9.89075 1.83337 10.4958ZM7.33337 15.8124H5.50004C5.12421 15.8124 4.81254 15.5008 4.81254 15.1249C4.81254 14.7491 5.12421 14.4374 5.50004 14.4374H7.33337C7.70921 14.4374 8.02087 14.7491 8.02087 15.1249C8.02087 15.5008 7.70921 15.8124 7.33337 15.8124ZM13.2917 15.8124H9.62504C9.24921 15.8124 8.93754 15.5008 8.93754 15.1249C8.93754 14.7491 9.24921 14.4374 9.62504 14.4374H13.2917C13.6675 14.4374 13.9792 14.7491 13.9792 15.1249C13.9792 15.5008 13.6675 15.8124 13.2917 15.8124Z" fill="currentColor"/>
</svg>
