<svg width="92" height="115" viewBox="0 0 92 115" fill="none" xmlns="http://www.w3.org/2000/svg">
<path d="M5.92377 81.4791C3.0071 81.4791 1.54877 82.8207 1.54877 85.5041H0.84877V82.8791C0.84877 81.0124 1.84044 80.0791 3.82377 80.0791H20.0988V81.4791H12.2238V103.179H9.07377V81.4791H5.92377ZM21.5759 90.9291C21.5759 89.7391 21.4125 88.8641 21.0859 88.3041C20.7592 87.7207 20.1059 87.4291 19.1259 87.4291H18.7759V86.7291H21.5759C22.4625 86.7291 23.1275 86.8574 23.5709 87.1141C24.0375 87.3474 24.3642 87.7441 24.5509 88.3041H24.7259C25.1459 87.7674 25.7059 87.3124 26.4059 86.9391C27.1292 86.5657 27.9692 86.3791 28.9259 86.3791C29.8592 86.3791 30.5592 86.5541 31.0259 86.9041C31.4225 87.2074 31.8309 87.7324 32.2509 88.4791L30.8509 89.5291C30.5942 89.1791 30.2209 88.9224 29.7309 88.7591C29.2409 88.5724 28.6809 88.4791 28.0509 88.4791C27.3509 88.4791 26.7092 88.6424 26.1259 88.9691C25.5425 89.2724 25.0759 89.6924 24.7259 90.2291V103.179H21.5759V90.9291ZM39.127 103.529C38.3803 103.529 37.622 103.377 36.852 103.074C36.082 102.747 35.417 102.222 34.857 101.499C34.3203 100.776 34.052 99.8191 34.052 98.6291C34.052 96.8557 34.8687 95.5957 36.502 94.8491C38.1587 94.1024 40.317 93.7291 42.977 93.7291H44.027C44.027 91.4424 43.712 89.8791 43.082 89.0391C42.452 88.1991 41.542 87.7791 40.352 87.7791C39.302 87.7791 38.462 88.0007 37.832 88.4441C37.202 88.8874 36.7587 89.6574 36.502 90.7541H34.927C34.927 89.9607 34.9737 89.3424 35.067 88.8991C35.1603 88.4324 35.4053 88.0007 35.802 87.6041C36.222 87.1841 36.9103 86.8807 37.867 86.6941C38.847 86.4841 39.9087 86.3791 41.052 86.3791C42.942 86.3791 44.4353 86.8924 45.532 87.9191C46.6287 88.9224 47.177 90.8591 47.177 93.7291V103.179H45.427L44.202 101.604H44.027C43.607 102.141 42.9887 102.596 42.172 102.969C41.3553 103.342 40.3403 103.529 39.127 103.529ZM40.702 101.954C41.472 101.954 42.1137 101.767 42.627 101.394C43.1403 101.021 43.607 100.507 44.027 99.8541V95.1291H42.977C41.2503 95.1291 39.8853 95.4557 38.882 96.1091C37.8787 96.7391 37.377 97.5791 37.377 98.6291C37.377 99.7024 37.692 100.531 38.322 101.114C38.9753 101.674 39.7687 101.954 40.702 101.954ZM52.6608 90.7541C52.1008 89.4474 51.5641 88.5374 51.0508 88.0241C50.5375 87.4874 49.8608 87.1957 49.0208 87.1491V86.4491C49.1375 86.4491 49.3008 86.4374 49.5108 86.4141C49.7441 86.3907 49.9775 86.3791 50.2108 86.3791C51.4475 86.3791 52.5675 86.6941 53.5708 87.3241C54.5741 87.9307 55.4375 89.0741 56.1608 90.7541L59.3108 98.2791L64.2108 86.7291H65.9608L58.7858 103.529H58.0858L52.6608 90.7541ZM75.2448 103.529C73.6582 103.529 72.3165 103.156 71.2198 102.409C70.1232 101.639 69.2948 100.612 68.7348 99.3291C68.1748 98.0224 67.8948 96.5641 67.8948 94.9541C67.8948 93.3674 68.1748 91.9207 68.7348 90.6141C69.2948 89.3074 70.0998 88.2807 71.1498 87.5341C72.2232 86.7641 73.4715 86.3791 74.8948 86.3791C77.2515 86.3791 79.0015 87.0441 80.1448 88.3741C81.3115 89.6807 81.8948 91.5824 81.8948 94.0791L81.8248 95.4791H71.2198C71.2198 97.4391 71.6398 99.0374 72.4798 100.274C73.3198 101.511 74.4748 102.129 75.9448 102.129C77.0415 102.129 77.9632 101.896 78.7098 101.429C79.4798 100.962 80.1915 100.262 80.8448 99.3291L81.5448 99.8541C80.7748 101.137 79.8765 102.071 78.8498 102.654C77.8232 103.237 76.6215 103.529 75.2448 103.529ZM78.5698 94.0791C78.5698 92.0257 78.2665 90.4624 77.6598 89.3891C77.0532 88.3157 76.1315 87.7791 74.8948 87.7791C74.1948 87.7791 73.5648 88.0591 73.0048 88.6191C72.4448 89.1557 72.0015 89.9024 71.6748 90.8591C71.3715 91.8157 71.2198 92.8891 71.2198 94.0791H78.5698ZM86.0697 84.2791C86.0697 83.0891 85.9063 82.2141 85.5797 81.6541C85.253 81.0707 84.5997 80.7791 83.6197 80.7791H82.9197V80.0791H86.0697C86.933 80.0791 87.5747 80.1957 87.9947 80.4291C88.438 80.6391 88.753 81.0357 88.9397 81.6191C89.1263 82.2024 89.2197 83.0891 89.2197 84.2791V103.179H86.0697V84.2791Z" fill="#00A66C"/>
<path d="M70.4647 34.9356L70.5796 34.9931C73.2515 36.4871 74.2858 39.8485 72.878 42.5491C67.9939 51.8863 58.1683 58.2644 46.8774 58.1782C31.1334 58.0633 18.2336 45.2497 18.0038 29.5057C17.7452 13.2445 30.8461 0 47.0785 0C56.2434 0 64.4314 4.25204 69.7464 10.8887L59.3462 16.5197C56.0135 13.2732 51.388 11.3196 46.3315 11.5207C37.0517 11.8942 29.5819 19.5651 29.467 28.8736C29.3521 38.6993 37.2816 46.6862 47.0498 46.6862C53.83 46.6862 59.7197 42.8651 62.6501 37.234C64.1441 34.4185 67.6779 33.3842 70.4647 34.9356Z" fill="#59C36A"/>
<path d="M72.9642 15.8301C74.2571 18.3583 73.3377 21.4611 70.8382 22.8402L64.4602 26.374L48.6587 35.1366C46.1879 36.5156 43.0851 35.8261 41.4187 33.5277L41.3613 33.4415C39.3789 30.7122 40.2408 26.8336 43.2287 25.2248L59.375 16.4909L69.7752 10.8598C70.9819 12.4112 72.0449 14.0775 72.9642 15.8301Z" fill="#00A66C"/>
</svg>
