<svg width="22" height="22" viewBox="0 0 22 22" fill="none" xmlns="http://www.w3.org/2000/svg">
<path d="M7.79171 17.4167H7.33337C3.66671 17.4167 1.83337 16.5 1.83337 11.9167V7.33334C1.83337 3.66668 3.66671 1.83334 7.33337 1.83334H14.6667C18.3334 1.83334 20.1667 3.66668 20.1667 7.33334V11.9167C20.1667 15.5833 18.3334 17.4167 14.6667 17.4167H14.2084C13.9242 17.4167 13.6492 17.5542 13.475 17.7833L12.1 19.6167C11.495 20.4233 10.505 20.4233 9.90004 19.6167L8.52504 17.7833C8.37837 17.5817 8.03921 17.4167 7.79171 17.4167Z" stroke="currentColor" stroke-width="1.375" stroke-miterlimit="10" stroke-linecap="round" stroke-linejoin="round"/>
<path d="M6.41663 7.33334H15.5833" stroke="currentColor" stroke-width="1.375" stroke-linecap="round" stroke-linejoin="round"/>
<path d="M6.41663 11.9167H11.9166" stroke="currentColor" stroke-width="1.375" stroke-linecap="round" stroke-linejoin="round"/>
</svg>
