<svg width="21" height="21" viewBox="0 0 21 21" fill="none" xmlns="http://www.w3.org/2000/svg">
<path d="M11.715 0.874216C11.2255 0.384701 10.4318 0.384701 9.94229 0.874216L1.16792 9.64859C0.678402 10.1381 0.678402 10.9318 1.16792 11.4213C1.65743 11.9108 2.45109 11.9108 2.94061 11.4213L3.30775 11.0541V19.3093C3.30775 20.0016 3.86895 20.5628 4.56123 20.5628H7.06819C7.76047 20.5628 8.32167 20.0016 8.32167 19.3093V16.8023C8.32167 16.1101 8.88288 15.5489 9.57516 15.5489H12.0821C12.7744 15.5489 13.3356 16.1101 13.3356 16.8023V19.3093C13.3356 20.0016 13.8968 20.5628 14.5891 20.5628H17.096C17.7883 20.5628 18.3495 20.0016 18.3495 19.3093V11.0541L18.7167 11.4213C19.2062 11.9108 19.9998 11.9108 20.4894 11.4213C20.9789 10.9318 20.9789 10.1381 20.4894 9.64859L11.715 0.874216Z" fill="#00A66C"/>
</svg>
