<svg width="21" height="21" viewBox="0 0 21 21" fill="none" xmlns="http://www.w3.org/2000/svg">
<path fill-rule="evenodd" clip-rule="evenodd" d="M20.4861 10.5348C20.4861 16.073 15.9965 20.5627 10.4583 20.5627C4.92004 20.5627 0.43042 16.073 0.43042 10.5348C0.43042 4.99658 4.92004 0.506958 10.4583 0.506958C15.9965 0.506958 20.4861 4.99658 20.4861 10.5348ZM12.9652 6.77437C12.9652 8.15893 11.8428 9.28133 10.4583 9.28133C9.07372 9.28133 7.95131 8.15893 7.95131 6.77437C7.95131 5.38981 9.07372 4.2674 10.4583 4.2674C11.8428 4.2674 12.9652 5.38981 12.9652 6.77437ZM10.4582 11.7883C7.92924 11.7883 5.75013 13.2861 4.75961 15.4431C6.13881 17.0429 8.18026 18.0557 10.4583 18.0557C12.7362 18.0557 14.7776 17.043 16.1568 15.4432C15.1663 13.2862 12.9872 11.7883 10.4582 11.7883Z" fill="#00A66C"/>
</svg>
