<svg width="21" height="21" viewBox="0 0 21 21" fill="none" xmlns="http://www.w3.org/2000/svg">
<path d="M11.715 0.874094C11.2255 0.384579 10.4318 0.384579 9.94229 0.874094L1.16792 9.64847C0.678402 10.138 0.678402 10.9316 1.16792 11.4212C1.65743 11.9107 2.45109 11.9107 2.94061 11.4212L3.30775 11.054V19.3092C3.30775 20.0015 3.86895 20.5627 4.56123 20.5627H7.06819C7.76047 20.5627 8.32167 20.0015 8.32167 19.3092V16.8022C8.32167 16.1099 8.88288 15.5487 9.57516 15.5487H12.0821C12.7744 15.5487 13.3356 16.1099 13.3356 16.8022V19.3092C13.3356 20.0015 13.8968 20.5627 14.5891 20.5627H17.096C17.7883 20.5627 18.3495 20.0015 18.3495 19.3092V11.054L18.7167 11.4212C19.2062 11.9107 19.9998 11.9107 20.4894 11.4212C20.9789 10.9316 20.9789 10.138 20.4894 9.64847L11.715 0.874094Z" fill="#656070"/>
</svg>
